<svg width="21" height="20" viewBox="0 0 21 20" fill="none" xmlns="http://www.w3.org/2000/svg">
<path fill-rule="evenodd" clip-rule="evenodd" d="M3.7798 9.93064C3.7798 8.94658 3.863 8.32207 5.91807 6.80081C7.61946 5.54132 13.073 1.23737 13.073 1.23737V8.42203H17.2202V18.7626H5.07515C4.36272 18.7626 3.7796 18.1843 3.7796 17.4778L3.7798 9.9307V9.93064Z" fill="#3E9CDC"/>
<path fill-rule="evenodd" clip-rule="evenodd" d="M13.073 8.42194V12.5849L5.45209 17.7335L15.0873 14.6246V8.42194H13.073Z" fill="black" fill-opacity="0.2"/>
<path fill-rule="evenodd" clip-rule="evenodd" d="M9.59037 8.20678C10.0361 7.68017 10.6869 7.4943 11.0443 7.79166C11.4017 8.08909 11.3303 8.75713 10.8846 9.28374C10.4392 9.81029 9.78808 9.99596 9.43069 9.69853C9.0733 9.40117 9.14494 8.73327 9.59037 8.20672V8.20678Z" fill="#231F20"/>
</svg>
