<svg width="55" height="56" viewBox="0 0 55 56" fill="none" xmlns="http://www.w3.org/2000/svg">
<path d="M23.9932 29.3724V28.0867C23.9932 27.7251 24.2745 27.4438 24.6361 27.4438H38.779C39.1406 27.4438 39.4218 27.7251 39.4218 28.0867V29.3724C39.4218 29.734 39.1406 30.0152 38.779 30.0152H24.6361C24.2745 30.0152 23.9932 29.734 23.9932 29.3724Z" fill="white"/>
<path d="M24.6361 32.5867H38.779C39.1406 32.5867 39.4218 32.8679 39.4218 33.2295V34.5152C39.4218 34.8768 39.1406 35.1581 38.779 35.1581H24.6361C24.2745 35.1581 23.9932 34.8768 23.9932 34.5152V33.2295C23.9932 32.8679 24.2745 32.5867 24.6361 32.5867Z" fill="white"/>
<path d="M24.6361 37.7295H38.779C39.1406 37.7295 39.4218 38.0108 39.4218 38.3724V39.6581C39.4218 40.0197 39.1406 40.3009 38.779 40.3009H24.6361C24.2745 40.3009 23.9932 40.0197 23.9932 39.6581V38.3724C23.9932 38.0108 24.2745 37.7295 24.6361 37.7295Z" fill="white"/>
<path fill-rule="evenodd" clip-rule="evenodd" d="M16.279 21.3147C12.1838 21.3147 8.86395 17.9949 8.86395 13.8997C8.86395 9.80455 12.1838 6.48474 16.279 6.48474C19.723 6.48474 22.6186 8.83271 23.4524 12.0152H36.2075C37.2723 12.0152 38.7589 12.638 39.5022 13.3813L45.77 19.6492C46.5133 20.3925 47.1361 21.8791 47.1361 22.9438V46.0867C47.1361 47.1514 46.2723 48.0152 45.2075 48.0152H18.2075C17.1428 48.0152 16.279 47.1514 16.279 46.0867L16.279 21.3147ZM18.8504 20.8567C21.4729 19.8871 23.3971 17.4769 23.6626 14.5867H34.279V22.9438C34.279 24.0085 35.1428 24.8724 36.2075 24.8724H44.5647V45.4438H18.8504V20.8567ZM37.674 15.1893C37.5334 15.0487 37.1919 14.8679 36.8504 14.7474V22.3009H44.404C44.2834 21.9594 44.1026 21.6179 43.962 21.4773L37.674 15.1893ZM17.279 14.8998H21.279V12.8998H17.279V8.89978H15.279V12.8998H11.279V14.8998H15.279V18.8998H17.279V14.8998Z" fill="white"/>
</svg>
