<svg width="245" height="21" viewBox="0 0 245 21" fill="none" xmlns="http://www.w3.org/2000/svg">
<g clip-path="url(#clip0_12_340)">
<path d="M0.689697 20.4999V0.619904H5.2817V16.4679H14.9137V20.4999H0.689697ZM24.5188 20.6679C23.0441 20.6679 21.7001 20.3786 20.4868 19.7999C19.2735 19.2212 18.2375 18.4652 17.3788 17.5319C16.5201 16.5799 15.8481 15.4972 15.3628 14.2839C14.8961 13.0706 14.6628 11.8199 14.6628 10.5319C14.6628 9.22524 14.9055 7.96523 15.3908 6.7519C15.8948 5.53857 16.5855 4.47458 17.4628 3.55991C18.3588 2.62658 19.4135 1.88924 20.6268 1.34791C21.8401 0.787904 23.1655 0.507904 24.6028 0.507904C26.0775 0.507904 27.4215 0.797237 28.6348 1.37591C29.8481 1.95458 30.8841 2.71991 31.7428 3.67191C32.6015 4.62391 33.2641 5.70658 33.7308 6.91991C34.1975 8.13324 34.4308 9.36524 34.4308 10.6159C34.4308 11.9226 34.1788 13.1826 33.6748 14.3959C33.1895 15.6092 32.5081 16.6826 31.6308 17.6159C30.7535 18.5306 29.7081 19.2679 28.4948 19.8279C27.2815 20.3879 25.9561 20.6679 24.5188 20.6679ZM19.3388 10.5879C19.3388 11.3532 19.4508 12.0999 19.6748 12.8279C19.8988 13.5372 20.2255 14.1719 20.6548 14.7319C21.1028 15.2919 21.6535 15.7399 22.3068 16.0759C22.9601 16.4119 23.7068 16.5799 24.5468 16.5799C25.4241 16.5799 26.1895 16.4026 26.8428 16.0479C27.4961 15.6932 28.0375 15.2359 28.4668 14.6759C28.8961 14.0972 29.2135 13.4532 29.4188 12.7439C29.6428 12.0159 29.7548 11.2786 29.7548 10.5319C29.7548 9.76658 29.6428 9.02923 29.4188 8.3199C29.1948 7.5919 28.8588 6.95723 28.4108 6.4159C27.9628 5.8559 27.4121 5.41724 26.7588 5.09991C26.1241 4.76391 25.3868 4.59591 24.5468 4.59591C23.6695 4.59591 22.9041 4.77323 22.2508 5.1279C21.6161 5.4639 21.0748 5.91191 20.6268 6.47191C20.1975 7.03191 19.8708 7.67591 19.6468 8.40391C19.4415 9.11324 19.3388 9.84124 19.3388 10.5879ZM37.0842 20.4999V0.619904H46.0442C46.9776 0.619904 47.8362 0.815904 48.6202 1.20791C49.4229 1.59991 50.1136 2.11324 50.6922 2.74791C51.2709 3.38258 51.7189 4.10123 52.0362 4.9039C52.3722 5.70657 52.5402 6.51858 52.5402 7.33991C52.5402 7.95591 52.4656 8.55324 52.3162 9.13191C52.1669 9.69191 51.9522 10.2239 51.6722 10.7279C51.3922 11.2319 51.0469 11.6892 50.6362 12.0999C50.2442 12.4919 49.7962 12.8279 49.2922 13.1079L53.6602 20.4999H48.4802L44.6722 14.0879H41.6762V20.4999H37.0842ZM41.6762 10.0839H45.8762C46.4176 10.0839 46.8842 9.83191 47.2762 9.32791C47.6682 8.80524 47.8642 8.14258 47.8642 7.33991C47.8642 6.51858 47.6402 5.86524 47.1922 5.37991C46.7442 4.89458 46.2589 4.65191 45.7362 4.65191H41.6762V10.0839ZM69.8141 16.4679V20.4999H55.842V0.619904H69.5621V4.65191H60.434V8.51591H68.274V12.2399H60.434V16.4679H69.8141ZM88.2838 20.4999V8.59991L83.9718 17.2519H81.5078L77.1958 8.59991V20.4999H72.6038V0.619904H77.5878L82.7398 11.0079L87.9198 0.619904H92.8758V20.4999H88.2838ZM96.6936 20.4999V0.619904H101.286V20.4999H96.6936ZM105.088 20.4999V0.619904H113.572C114.524 0.619904 115.392 0.815904 116.176 1.20791C116.979 1.59991 117.66 2.11324 118.22 2.74791C118.799 3.38258 119.247 4.10123 119.564 4.9039C119.9 5.70657 120.068 6.51858 120.068 7.33991C120.068 8.21724 119.909 9.05724 119.592 9.85991C119.293 10.6626 118.864 11.3812 118.304 12.0159C117.763 12.6506 117.1 13.1546 116.316 13.5279C115.532 13.9012 114.664 14.0879 113.712 14.0879H109.68V20.4999H105.088ZM109.68 10.0839H113.432C113.973 10.0839 114.44 9.85058 114.832 9.38391C115.224 8.91724 115.42 8.23591 115.42 7.33991C115.42 6.87324 115.355 6.47191 115.224 6.13591C115.112 5.79991 114.953 5.51991 114.748 5.29591C114.543 5.07191 114.309 4.91324 114.048 4.81991C113.787 4.70791 113.525 4.65191 113.264 4.65191H109.68V10.0839ZM134.461 6.4439C134.405 6.36923 134.209 6.22924 133.873 6.02391C133.537 5.81858 133.117 5.60391 132.613 5.37991C132.109 5.15591 131.559 4.9599 130.961 4.7919C130.364 4.6239 129.767 4.53991 129.169 4.53991C127.527 4.53991 126.705 5.09057 126.705 6.19191C126.705 6.52791 126.789 6.80791 126.957 7.03191C127.144 7.25591 127.405 7.46123 127.741 7.6479C128.096 7.8159 128.535 7.97457 129.057 8.1239C129.58 8.27323 130.187 8.44124 130.877 8.62791C131.829 8.88924 132.688 9.17858 133.453 9.49591C134.219 9.79458 134.863 10.1772 135.385 10.6439C135.927 11.0919 136.337 11.6426 136.617 12.2959C136.916 12.9492 137.065 13.7332 137.065 14.6479C137.065 15.7679 136.851 16.7199 136.421 17.5039C136.011 18.2692 135.46 18.8946 134.769 19.3799C134.079 19.8466 133.285 20.1919 132.389 20.4159C131.493 20.6212 130.569 20.7239 129.617 20.7239C128.889 20.7239 128.143 20.6679 127.377 20.5559C126.612 20.4439 125.865 20.2852 125.137 20.0799C124.409 19.8559 123.7 19.5946 123.009 19.2959C122.337 18.9972 121.712 18.6519 121.133 18.2599L123.149 14.2559C123.224 14.3492 123.467 14.5266 123.877 14.7879C124.288 15.0492 124.792 15.3106 125.389 15.5719C126.005 15.8332 126.687 16.0666 127.433 16.2719C128.18 16.4772 128.936 16.5799 129.701 16.5799C131.325 16.5799 132.137 16.0852 132.137 15.0959C132.137 14.7226 132.016 14.4146 131.773 14.1719C131.531 13.9292 131.195 13.7146 130.765 13.5279C130.336 13.3226 129.823 13.1359 129.225 12.9679C128.647 12.7999 128.012 12.6132 127.321 12.4079C126.407 12.1279 125.613 11.8292 124.941 11.5119C124.269 11.1759 123.709 10.7932 123.261 10.3639C122.832 9.93458 122.505 9.43991 122.281 8.87991C122.076 8.31991 121.973 7.66658 121.973 6.91991C121.973 5.87458 122.169 4.95058 122.561 4.14791C122.953 3.34524 123.485 2.67324 124.157 2.13191C124.829 1.57191 125.604 1.15191 126.481 0.871904C127.377 0.591904 128.32 0.451904 129.309 0.451904C130 0.451904 130.681 0.517237 131.353 0.647904C132.025 0.778571 132.669 0.946571 133.285 1.15191C133.901 1.35724 134.471 1.59058 134.993 1.85191C135.535 2.11324 136.029 2.37458 136.477 2.63591L134.461 6.4439ZM148.3 16.5799C149.084 16.5799 149.747 16.4212 150.288 16.1039C150.829 15.7679 151.268 15.3292 151.604 14.7879C151.94 14.2466 152.173 13.6306 152.304 12.9399C152.453 12.2306 152.528 11.5119 152.528 10.7839V0.619904H157.12V10.7839C157.12 12.1652 156.943 13.4532 156.588 14.6479C156.252 15.8426 155.72 16.8879 154.992 17.7839C154.283 18.6799 153.368 19.3892 152.248 19.9119C151.147 20.4159 149.831 20.6679 148.3 20.6679C146.713 20.6679 145.36 20.3972 144.24 19.8559C143.12 19.3146 142.205 18.5959 141.496 17.6999C140.805 16.7852 140.292 15.7306 139.956 14.5359C139.639 13.3412 139.48 12.0906 139.48 10.7839V0.619904H144.072V10.7839C144.072 11.5492 144.147 12.2772 144.296 12.9679C144.445 13.6586 144.688 14.2746 145.024 14.8159C145.36 15.3572 145.789 15.7866 146.312 16.1039C146.853 16.4212 147.516 16.5799 148.3 16.5799ZM176.358 20.4999V8.59991L172.046 17.2519H169.582L165.27 8.59991V20.4999H160.678V0.619904H165.662L170.814 11.0079L175.994 0.619904H180.95V20.4999H176.358ZM184.376 20.4999V15.9359H188.044V20.4999H184.376Z" fill="white"/>
<path d="M196.059 9.13212V20.5001H191.467V0.620117H195.051L204.319 12.2961V0.620117H208.911V20.5001H205.215L196.059 9.13212ZM226.685 16.4681V20.5001H212.713V0.620117H226.433V4.65212H217.305V8.51612H225.145V12.2401H217.305V16.4681H226.685ZM244.623 4.65212H238.575V20.5001H233.983V4.65212H227.907V0.620117H244.623V4.65212Z" fill="#42A9ED"/>
</g>
<defs>
<clipPath id="clip0_12_340">
<rect width="245" height="21" fill="white"/>
</clipPath>
</defs>
</svg>
