<svg width="21" height="21" viewBox="0 0 21 21" fill="none" xmlns="http://www.w3.org/2000/svg">
<path d="M14.9337 12.3485C14.9337 12.42 14.898 12.5003 14.8444 12.5539L14.398 13.0003C14.3444 13.0539 14.2641 13.0896 14.1927 13.0896C14.1212 13.0896 14.0409 13.0539 13.9873 13.0003L10.4784 9.49139L6.96944 13.0003C6.91587 13.0539 6.83551 13.0896 6.76408 13.0896C6.68372 13.0896 6.6123 13.0539 6.55872 13.0003L6.1123 12.5539C6.05872 12.5003 6.02301 12.42 6.02301 12.3485C6.02301 12.2771 6.05872 12.1967 6.1123 12.1432L10.273 7.98246C10.3266 7.92889 10.4069 7.89317 10.4784 7.89317C10.5498 7.89317 10.6302 7.92889 10.6837 7.98246L14.8444 12.1432C14.898 12.1967 14.9337 12.2771 14.9337 12.3485Z" fill="white"/>
</svg>
