<svg width="56" height="56" viewBox="0 0 56 56" fill="none" xmlns="http://www.w3.org/2000/svg">
<path d="M44.7952 39.1072C44.7952 39.4487 44.4938 39.7501 44.1523 39.7501H14.5809C14.2393 39.7501 13.938 39.4487 13.938 39.1072V23.6786C14.3599 24.1608 14.8219 24.6027 15.3242 25.0045C18.1969 27.2143 21.0898 29.4643 23.8822 31.7947C25.3889 33.0603 27.2572 34.6072 29.3465 34.6072H29.3666H29.3867C31.476 34.6072 33.3443 33.0603 34.851 31.7947C37.6434 29.4643 40.5362 27.2143 43.409 25.0045C43.9112 24.6027 44.3733 24.1608 44.7952 23.6786V39.1072ZM44.7952 17.9934C44.7952 19.7009 43.1478 21.9309 41.842 22.9554C39.1501 25.0648 36.4581 27.1942 33.7862 29.3237C32.7215 30.1876 30.7929 32.0358 29.3867 32.0358H29.3666H29.3465C27.9402 32.0358 26.0117 30.1876 24.9469 29.3237C22.2751 27.1942 19.5831 25.0648 16.8911 22.9554C15.0831 21.5291 13.938 19.5402 13.938 17.2501C13.938 16.9085 14.2393 16.6072 14.5809 16.6072H44.1523C44.9157 16.6072 44.7952 17.4911 44.7952 17.9934ZM47.3666 17.2501C47.3666 15.4822 45.9202 14.0358 44.1523 14.0358H14.5809C12.813 14.0358 11.3666 15.4822 11.3666 17.2501V39.1072C11.3666 40.8751 12.813 42.3215 14.5809 42.3215H44.1523C45.9202 42.3215 47.3666 40.8751 47.3666 39.1072V17.2501Z" fill="white"/>
</svg>
