<svg width="56" height="56" viewBox="0 0 56 56" fill="none" xmlns="http://www.w3.org/2000/svg">
<path d="M24.7287 32.5358V30.6072H27.3002V24.8215H27.26C26.9386 25.3237 26.6372 25.5447 26.1551 25.9666L24.6082 24.3594L27.5814 21.6072H29.8716V30.6072H32.443V32.5358H24.7287ZM35.0145 27.3929C35.0145 23.7367 32.8046 19.0358 28.5859 19.0358C24.3671 19.0358 22.1573 23.7367 22.1573 27.3929C22.1573 31.0492 24.3671 35.7501 28.5859 35.7501C32.8046 35.7501 35.0145 31.0492 35.0145 27.3929ZM45.3002 32.5358C42.4676 32.5358 40.1573 34.846 40.1573 37.6786H17.0145C17.0145 34.846 14.7042 32.5358 11.8716 32.5358V22.2501C14.7042 22.2501 17.0145 19.9398 17.0145 17.1072H40.1573C40.1573 19.9398 42.4676 22.2501 45.3002 22.2501V32.5358ZM47.8716 15.8215C47.8716 15.1184 47.289 14.5358 46.5859 14.5358H10.5859C9.88276 14.5358 9.30017 15.1184 9.30017 15.8215V38.9643C9.30017 39.6675 9.88276 40.2501 10.5859 40.2501H46.5859C47.289 40.2501 47.8716 39.6675 47.8716 38.9643V15.8215Z" fill="white"/>
</svg>
